<?xml version="1.0" encoding="UTF-8" standalone="no"?>
<!-- Created with Inkscape (http://www.inkscape.org/) -->

<svg
   width="145.81207mm"
   height="157.27225mm"
   viewBox="0 0 145.81207 157.27225"
   version="1.1"
   id="svg1"
   xmlns="http://www.w3.org/2000/svg"
   xmlns:svg="http://www.w3.org/2000/svg">
  <defs
     id="defs1" />
  <g
     id="layer2"
     transform="translate(-17.553171,-21.450719)">
    <path
       style="fill:#2e3b4b;fill-opacity:1;stroke-width:0.264583"
       d="m 111.33053,160.38365 c -2.05343,-0.39997 -4.13458,-1.87092 -5.48414,-3.87617 -0.96901,-1.43981 -1.35796,-3.0135 -3.96449,-16.04022 -3.800503,-18.99387 -10.897543,-53.452634 -11.371423,-55.212513 -0.2056,-0.763519 -0.50447,-1.388216 -0.66415,-1.388216 -0.31851,0 -1.92875,5.64397 -7.29704,25.576389 -1.09739,4.07458 -2.29233,7.99471 -2.65543,8.71139 -0.95345,1.8819 -3.02284,3.77755 -5.24948,4.80876 -4.90899,2.27346 -11.609347,0.25848 -14.276958,-4.29345 -0.959255,-1.63685 -9.955837,-23.723625 -10.419993,-25.58128 -0.43153,-1.727079 -0.04275,-3.436816 1.198724,-5.271572 2.726484,-4.029443 8.512736,-4.350242 11.759845,-0.651986 0.588367,0.670113 1.983859,3.653454 3.412866,7.296174 2.376146,6.057094 2.834516,7.005874 3.205416,6.634974 0.10234,-0.10233 0.56143,-1.599877 1.0202,-3.327871 0.80076,-3.016107 3.46148,-12.920019 6.57795,-24.484861 0.81043,-3.007429 2.3955,-8.931939 3.52238,-13.165574 2.24997,-8.453083 2.94311,-9.894898 5.46827,-11.374739 1.82077,-1.067046 4.29987,-1.553975 6.17033,-1.211934 2.10659,0.385214 4.59872,2.080942 5.71601,3.889353 1.00451,1.625865 1.29057,2.943334 11.028253,50.790666 3.86699,19.00097 4.22983,20.6375 4.57553,20.6375 0.29137,0 4.51327,-17.12645 9.56609,-38.805549 1.72059,-7.382185 2.68133,-9.79783 4.50807,-11.334933 4.10142,-3.451116 9.50072,-3.394852 13.26149,0.13819 1.44491,1.357421 2.13968,2.467697 3.69516,5.905076 2.18271,4.823473 1.98583,4.638842 9.39933,8.814343 4.90525,2.762773 6.60379,4.326445 8.18208,7.532417 1.04093,2.114436 1.14983,2.637708 1.14983,5.525456 0,2.89319 -0.10783,3.40887 -1.1595,5.5451 -2.13215,4.33101 -6.00347,6.73448 -10.85404,6.73861 -4.8455,0.004 -8.617,-2.62406 -10.90356,-7.59821 -3.83686,-8.346636 -4.45711,-9.554181 -4.74941,-9.24647 -0.17119,0.180202 -2.00342,7.47139 -4.07163,16.20264 -2.06821,8.73125 -4.06393,17.145 -4.43494,18.69722 -0.37101,1.55222 -1.77826,7.44941 -3.12723,13.10486 -1.34897,5.65545 -2.76573,10.89628 -3.14836,11.64629 -1.82694,3.58109 -5.64,5.43876 -9.58605,4.67014 z"
       id="path2" />
    <path
       style="fill:#1584ef;fill-opacity:1;stroke-width:0.264583"
       d="m 27.117552,178.25194 c -4.649642,-1.45312 -8.276283,-5.43758 -9.255562,-10.16876 -0.267626,-1.29296 -0.353499,-21.90057 -0.287718,-69.047206 l 0.09376,-67.204163 0.818655,-2.027293 c 1.07705,-2.667163 3.70413,-5.495509 6.482919,-6.979581 1.914893,-1.022691 2.646363,-1.20795 5.271281,-1.335058 3.991533,-0.193286 5.070279,0.185933 12.685707,4.459504 3.376263,1.894665 11.337721,6.350325 17.692131,9.901468 8.206892,4.586396 11.553472,6.632834 11.553472,7.064972 0,0.334598 -0.23624,1.311323 -0.52497,2.170505 -0.28873,0.859184 -1.38484,4.714075 -2.4358,8.56643 -1.05097,3.852352 -2.07453,7.167964 -2.274589,7.368024 -0.335844,0.335843 -7.325154,-3.408876 -24.616325,-13.188886 -4.249867,-2.403756 -5.400091,-2.820686 -5.454576,-1.977168 -0.183288,2.837577 0.104275,108.781182 0.295762,108.964332 0.287784,0.27524 11.709653,-6.0327 40.781498,-22.52233 4.2412,-2.40562 7.80111,-4.28402 7.9109,-4.17422 0.26788,0.26788 4.27974,17.80137 4.29654,18.77765 0.0106,0.61652 -0.73618,1.18199 -3.77914,2.86155 -2.0858,1.15125 -8.07861,4.51395 -13.31736,7.47265 -31.885649,18.00813 -36.433678,20.51255 -38.244256,21.05952 -1.94986,0.58904 -5.739461,0.56838 -7.692329,-0.0419 z"
       id="path1" />
  </g>
</svg>
